<svg width="101" height="30" viewBox="0 0 101 30" fill="none" xmlns="http://www.w3.org/2000/svg">
<path d="M14.2676 17.9248H18.6475C18.5596 19.3604 18.1641 20.6348 17.4609 21.748C16.7676 22.8613 15.7959 23.7305 14.5459 24.3555C13.3057 24.9805 11.8115 25.293 10.0635 25.293C8.69629 25.293 7.4707 25.0586 6.38672 24.5898C5.30273 24.1113 4.375 23.4277 3.60352 22.5391C2.8418 21.6504 2.26074 20.5762 1.86035 19.3164C1.45996 18.0566 1.25977 16.6455 1.25977 15.083V13.6035C1.25977 12.041 1.46484 10.6299 1.875 9.37012C2.29492 8.10059 2.89062 7.02148 3.66211 6.13281C4.44336 5.24414 5.37598 4.56055 6.45996 4.08203C7.54395 3.60352 8.75488 3.36426 10.0928 3.36426C11.8701 3.36426 13.3691 3.68652 14.5898 4.33105C15.8203 4.97559 16.7725 5.86426 17.4463 6.99707C18.1299 8.12988 18.54 9.41895 18.6768 10.8643H14.2822C14.2334 10.0049 14.0625 9.27734 13.7695 8.68164C13.4766 8.07617 13.0322 7.62207 12.4365 7.31934C11.8506 7.00684 11.0693 6.85059 10.0928 6.85059C9.36035 6.85059 8.7207 6.9873 8.17383 7.26074C7.62695 7.53418 7.16797 7.94922 6.79688 8.50586C6.42578 9.0625 6.14746 9.76562 5.96191 10.6152C5.78613 11.4551 5.69824 12.4414 5.69824 13.5742V15.083C5.69824 16.1865 5.78125 17.1582 5.94727 17.998C6.11328 18.8281 6.36719 19.5312 6.70898 20.1074C7.06055 20.6738 7.50977 21.1035 8.05664 21.3965C8.61328 21.6797 9.28223 21.8213 10.0635 21.8213C10.9814 21.8213 11.7383 21.6748 12.334 21.3818C12.9297 21.0889 13.3838 20.6543 13.6963 20.0781C14.0186 19.502 14.209 18.7842 14.2676 17.9248ZM25.3857 2.5V25H21.167V2.5H25.3857ZM24.7852 16.5186H23.6279C23.6377 15.415 23.7842 14.3994 24.0674 13.4717C24.3506 12.5342 24.7559 11.7236 25.2832 11.04C25.8105 10.3467 26.4404 9.80957 27.1729 9.42871C27.915 9.04785 28.7354 8.85742 29.6338 8.85742C30.415 8.85742 31.123 8.96973 31.7578 9.19434C32.4023 9.40918 32.9541 9.76074 33.4131 10.249C33.8818 10.7275 34.2432 11.3574 34.4971 12.1387C34.751 12.9199 34.8779 13.8672 34.8779 14.9805V25H30.6299V14.9512C30.6299 14.248 30.5273 13.6963 30.3223 13.2959C30.127 12.8857 29.8389 12.5977 29.458 12.4316C29.0869 12.2559 28.6279 12.168 28.0811 12.168C27.4756 12.168 26.958 12.2803 26.5283 12.5049C26.1084 12.7295 25.7715 13.042 25.5176 13.4424C25.2637 13.833 25.0781 14.292 24.9609 14.8193C24.8438 15.3467 24.7852 15.9131 24.7852 16.5186ZM46.6406 21.4258V14.3652C46.6406 13.8574 46.5576 13.4229 46.3916 13.0615C46.2256 12.6904 45.9668 12.4023 45.6152 12.1973C45.2734 11.9922 44.8291 11.8896 44.2822 11.8896C43.8135 11.8896 43.4082 11.9727 43.0664 12.1387C42.7246 12.2949 42.4609 12.5244 42.2754 12.8271C42.0898 13.1201 41.9971 13.4668 41.9971 13.8672H37.7783C37.7783 13.1934 37.9346 12.5537 38.2471 11.9482C38.5596 11.3428 39.0137 10.8105 39.6094 10.3516C40.2051 9.88281 40.9131 9.5166 41.7334 9.25293C42.5635 8.98926 43.4912 8.85742 44.5166 8.85742C45.7471 8.85742 46.8408 9.0625 47.7979 9.47266C48.7549 9.88281 49.5068 10.498 50.0537 11.3184C50.6104 12.1387 50.8887 13.1641 50.8887 14.3945V21.1768C50.8887 22.0459 50.9424 22.7588 51.0498 23.3154C51.1572 23.8623 51.3135 24.3408 51.5186 24.751V25H47.2559C47.0508 24.5703 46.8945 24.0332 46.7871 23.3887C46.6895 22.7344 46.6406 22.0801 46.6406 21.4258ZM47.1973 15.3467L47.2266 17.7344H44.8682C44.3115 17.7344 43.8281 17.7979 43.418 17.9248C43.0078 18.0518 42.6709 18.2324 42.4072 18.4668C42.1436 18.6914 41.9482 18.9551 41.8213 19.2578C41.7041 19.5605 41.6455 19.8926 41.6455 20.2539C41.6455 20.6152 41.7285 20.9424 41.8945 21.2354C42.0605 21.5186 42.2998 21.7432 42.6123 21.9092C42.9248 22.0654 43.291 22.1436 43.7109 22.1436C44.3457 22.1436 44.8975 22.0166 45.3662 21.7627C45.835 21.5088 46.1963 21.1963 46.4502 20.8252C46.7139 20.4541 46.8506 20.1025 46.8604 19.7705L47.9736 21.5576C47.8174 21.958 47.6025 22.373 47.3291 22.8027C47.0654 23.2324 46.7285 23.6377 46.3184 24.0186C45.9082 24.3896 45.415 24.6973 44.8389 24.9414C44.2627 25.1758 43.5791 25.293 42.7881 25.293C41.7822 25.293 40.8691 25.0928 40.0488 24.6924C39.2383 24.2822 38.5938 23.7207 38.1152 23.0078C37.6465 22.2852 37.4121 21.4648 37.4121 20.5469C37.4121 19.7168 37.5684 18.9795 37.8809 18.335C38.1934 17.6904 38.6523 17.1484 39.2578 16.709C39.873 16.2598 40.6396 15.9229 41.5576 15.6982C42.4756 15.4639 43.54 15.3467 44.751 15.3467H47.1973ZM58.3594 12.6074V25H54.1406V9.15039H58.1104L58.3594 12.6074ZM63.1348 9.04785L63.0615 12.959C62.8564 12.9297 62.6074 12.9053 62.3145 12.8857C62.0312 12.8564 61.7725 12.8418 61.5381 12.8418C60.9424 12.8418 60.4248 12.9199 59.9854 13.0762C59.5557 13.2227 59.1943 13.4424 58.9014 13.7354C58.6182 14.0283 58.4033 14.3848 58.2568 14.8047C58.1201 15.2246 58.042 15.7031 58.0225 16.2402L57.1729 15.9766C57.1729 14.9512 57.2754 14.0088 57.4805 13.1494C57.6855 12.2803 57.9834 11.5234 58.374 10.8789C58.7744 10.2344 59.2627 9.73633 59.8389 9.38477C60.415 9.0332 61.0742 8.85742 61.8164 8.85742C62.0508 8.85742 62.29 8.87695 62.5342 8.91602C62.7783 8.94531 62.9785 8.98926 63.1348 9.04785ZM73.1836 21.4258V14.3652C73.1836 13.8574 73.1006 13.4229 72.9346 13.0615C72.7686 12.6904 72.5098 12.4023 72.1582 12.1973C71.8164 11.9922 71.3721 11.8896 70.8252 11.8896C70.3564 11.8896 69.9512 11.9727 69.6094 12.1387C69.2676 12.2949 69.0039 12.5244 68.8184 12.8271C68.6328 13.1201 68.54 13.4668 68.54 13.8672H64.3213C64.3213 13.1934 64.4775 12.5537 64.79 11.9482C65.1025 11.3428 65.5566 10.8105 66.1523 10.3516C66.748 9.88281 67.4561 9.5166 68.2764 9.25293C69.1064 8.98926 70.0342 8.85742 71.0596 8.85742C72.29 8.85742 73.3838 9.0625 74.3408 9.47266C75.2979 9.88281 76.0498 10.498 76.5967 11.3184C77.1533 12.1387 77.4316 13.1641 77.4316 14.3945V21.1768C77.4316 22.0459 77.4854 22.7588 77.5928 23.3154C77.7002 23.8623 77.8564 24.3408 78.0615 24.751V25H73.7988C73.5938 24.5703 73.4375 24.0332 73.3301 23.3887C73.2324 22.7344 73.1836 22.0801 73.1836 21.4258ZM73.7402 15.3467L73.7695 17.7344H71.4111C70.8545 17.7344 70.3711 17.7979 69.9609 17.9248C69.5508 18.0518 69.2139 18.2324 68.9502 18.4668C68.6865 18.6914 68.4912 18.9551 68.3643 19.2578C68.2471 19.5605 68.1885 19.8926 68.1885 20.2539C68.1885 20.6152 68.2715 20.9424 68.4375 21.2354C68.6035 21.5186 68.8428 21.7432 69.1553 21.9092C69.4678 22.0654 69.834 22.1436 70.2539 22.1436C70.8887 22.1436 71.4404 22.0166 71.9092 21.7627C72.3779 21.5088 72.7393 21.1963 72.9932 20.8252C73.2568 20.4541 73.3936 20.1025 73.4033 19.7705L74.5166 21.5576C74.3604 21.958 74.1455 22.373 73.8721 22.8027C73.6084 23.2324 73.2715 23.6377 72.8613 24.0186C72.4512 24.3896 71.958 24.6973 71.3818 24.9414C70.8057 25.1758 70.1221 25.293 69.3311 25.293C68.3252 25.293 67.4121 25.0928 66.5918 24.6924C65.7812 24.2822 65.1367 23.7207 64.6582 23.0078C64.1895 22.2852 63.9551 21.4648 63.9551 20.5469C63.9551 19.7168 64.1113 18.9795 64.4238 18.335C64.7363 17.6904 65.1953 17.1484 65.8008 16.709C66.416 16.2598 67.1826 15.9229 68.1006 15.6982C69.0186 15.4639 70.083 15.3467 71.2939 15.3467H73.7402ZM84.8145 12.5342V25H80.5957V9.15039H84.5508L84.8145 12.5342ZM84.1992 16.5186H83.0566C83.0566 15.3467 83.208 14.292 83.5107 13.3545C83.8135 12.4072 84.2383 11.6016 84.7852 10.9375C85.332 10.2637 85.9814 9.75098 86.7334 9.39941C87.4951 9.03809 88.3447 8.85742 89.2822 8.85742C90.0244 8.85742 90.7031 8.96484 91.3184 9.17969C91.9336 9.39453 92.4609 9.73633 92.9004 10.2051C93.3496 10.6738 93.6914 11.2939 93.9258 12.0654C94.1699 12.8369 94.292 13.7793 94.292 14.8926V25H90.0439V14.8779C90.0439 14.1748 89.9463 13.6279 89.751 13.2373C89.5557 12.8467 89.2676 12.5732 88.8867 12.417C88.5156 12.251 88.0566 12.168 87.5098 12.168C86.9434 12.168 86.4502 12.2803 86.0303 12.5049C85.6201 12.7295 85.2783 13.042 85.0049 13.4424C84.7412 13.833 84.541 14.292 84.4043 14.8193C84.2676 15.3467 84.1992 15.9131 84.1992 16.5186Z" fill="#111111"/>
<circle cx="99" cy="23" r="2" fill="#FF1313"/>
</svg>
